<?xml version="1.0" encoding="utf-8"?>
<!-- Generator: Adobe Illustrator 28.5.0, SVG Export Plug-In . SVG Version: 9.03 Build 54727)  -->
<svg version="1.1" xmlns="http://www.w3.org/2000/svg" xmlns:xlink="http://www.w3.org/1999/xlink" x="0px" y="0px"
	 viewBox="0 0 1000 1000" style="enable-background:new 0 0 1000 1000;" xml:space="preserve">
<style type="text/css">
	.Drop_x0020_Shadow{fill:none;}
	.Outer_x0020_Glow_x0020_5_x0020_pt{fill:none;}
	.Blue_x0020_Neon{fill:none;stroke:#89ABD9;stroke-width:7;stroke-linecap:round;stroke-linejoin:round;}
	.Chrome_x0020_Highlight{fill:url(#SVGID_1_);stroke:#FFFFFF;stroke-width:0.3629;stroke-miterlimit:1;}
	.Jive_GS{fill:#FFDC00;}
	.Alyssa_GS{fill:#A5CFE3;}
	.st0{display:none;}
	.st1{display:inline;}
	.st2{fill:#EEF2F8;}
	.st3{clip-path:url(#SVGID_00000164495680671549348130000009518016145922128260_);fill:#121820;}
	.st4{clip-path:url(#SVGID_00000132794433205988053090000011182015551865709987_);fill:#121820;}
	.st5{clip-path:url(#SVGID_00000104694200816925918030000016013415721315885485_);fill:#121820;}
	.st6{fill:#67B67E;}
	.st7{opacity:0.66;clip-path:url(#SVGID_00000165235858596536753270000004073827801844241024_);}
	.st8{clip-path:url(#SVGID_00000085946647235157402410000005678141056253452441_);}
	.st9{clip-path:url(#SVGID_00000103238872284768814680000016260774328494548626_);}
	.st10{fill:#FFFFFF;}
	.st11{fill:#FBFCFB;}
	.st12{fill:#F9FAF9;}
	.st13{fill:#F7F9F7;}
	.st14{fill:#F5F7F5;}
	.st15{fill:#F3F6F3;}
	.st16{fill:#F1F5F1;}
	.st17{fill:#F0F4F0;}
	.st18{fill:#EEF2EE;}
	.st19{fill:#ECF1ED;}
	.st20{fill:#EBF0EB;}
	.st21{fill:#E9EFEA;}
	.st22{fill:#E8EEE9;}
	.st23{fill:#E7EDE7;}
	.st24{fill:#E5ECE6;}
	.st25{fill:#E5ECE5;}
	.st26{fill:#E3EBE4;}
	.st27{fill:#E2EAE3;}
	.st28{fill:#E1E9E2;}
	.st29{fill:#DFE8E1;}
	.st30{fill:#DEE7E0;}
	.st31{fill:#DDE6DF;}
	.st32{fill:#DBE5DD;}
	.st33{fill:#DAE4DC;}
	.st34{fill:#D8E3DB;}
	.st35{fill:#D8E3DA;}
	.st36{fill:#D7E2D9;}
	.st37{fill:#D5E1D7;}
	.st38{fill:#D4E0D6;}
	.st39{fill:#D3DFD5;}
	.st40{fill:#D2DED4;}
	.st41{fill:#D0DCD3;}
	.st42{fill:#CFDCD2;}
	.st43{fill:#CEDBD1;}
	.st44{fill:#CCDACF;}
	.st45{fill:#CBD9CE;}
	.st46{fill:#CAD8CD;}
	.st47{fill:#C9D7CC;}
	.st48{fill:#C8D6CB;}
	.st49{fill:#C7D6CA;}
	.st50{fill:#C6D5C9;}
	.st51{fill:#C5D4C8;}
	.st52{fill:#C3D3C6;}
	.st53{fill:#C2D2C5;}
	.st54{fill:#C1D1C4;}
	.st55{fill:#C0D1C3;}
	.st56{fill:#BED0C2;}
	.st57{fill:#BDCFC1;}
	.st58{fill:#BCCEC0;}
	.st59{fill:#BBCDBF;}
	.st60{fill:#BBCDBE;}
	.st61{fill:#B9CCBD;}
	.st62{fill:#B8CBBC;}
	.st63{fill:#B7CABB;}
	.st64{fill:#B6C9BA;}
	.st65{fill:#B5C9B9;}
	.st66{fill:#B3C8B7;}
	.st67{fill:#B2C7B6;}
	.st68{fill:#B1C6B5;}
	.st69{fill:#B0C5B4;}
	.st70{fill:#AFC5B3;}
	.st71{fill:#AEC4B2;}
	.st72{fill:#ADC3B1;}
	.st73{fill:#ACC2B0;}
	.st74{fill:#ABC1AF;}
	.st75{fill:#AAC1AE;}
	.st76{fill:#A8C0AD;}
	.st77{fill:#A7BFAC;}
	.st78{fill:#A6BEAB;}
	.st79{fill:#A5BEAB;}
	.st80{fill:#A4BDAA;}
	.st81{fill:#A3BCA9;}
	.st82{fill:#A1BBA8;}
	.st83{fill:#A1BAA7;}
	.st84{fill:#A0BAA6;}
	.st85{fill:#9FB9A5;}
	.st86{fill:#9EB8A4;}
	.st87{fill:#9DB7A3;}
	.st88{fill:#9CB7A2;}
	.st89{fill:#9AB6A1;}
	.st90{fill:#99B5A0;}
	.st91{fill:#98B49F;}
	.st92{fill:#97B49E;}
	.st93{fill:#96B39D;}
	.st94{fill:#95B29C;}
	.st95{fill:#94B19B;}
	.st96{fill:#93B19A;}
	.st97{fill:#92B099;}
	.st98{fill:#91AF98;}
	.st99{fill:#90AE97;}
	.st100{fill:#8FAE96;}
	.st101{fill:#8EAD95;}
	.st102{fill:#8DAC94;}
	.st103{fill:#8BAB93;}
	.st104{fill:#8BAB92;}
	.st105{fill:#8AAA91;}
	.st106{fill:#89A990;}
	.st107{fill:#88A98F;}
	.st108{fill:#87A88F;}
	.st109{fill:#86A78E;}
	.st110{fill:#85A68D;}
	.st111{fill:#84A68C;}
	.st112{fill:#83A58B;}
	.st113{fill:#81A48A;}
	.st114{fill:#81A489;}
	.st115{fill:#80A388;}
	.st116{fill:#80A287;}
	.st117{fill:#7FA186;}
	.st118{fill:#7EA185;}
	.st119{fill:#7DA084;}
	.st120{fill:#7C9F83;}
	.st121{fill:#7B9F83;}
	.st122{fill:#7A9E82;}
	.st123{fill:#799D81;}
	.st124{fill:#789C80;}
	.st125{fill:#769B7F;}
	.st126{fill:#759A7E;}
	.st127{fill:#749A7D;}
	.st128{fill:#73997D;}
	.st129{fill:#72987C;}
	.st130{fill:#71987B;}
	.st131{fill:#71977A;}
	.st132{fill:#709679;}
	.st133{fill:#6F9679;}
	.st134{fill:#6E9578;}
	.st135{fill:#6D9477;}
	.st136{fill:#6C9477;}
	.st137{fill:#6A9376;}
	.st138{fill:#699275;}
	.st139{fill:#699274;}
	.st140{fill:#689174;}
	.st141{fill:#679173;}
	.st142{fill:#669072;}
	.st143{fill:#658F71;}
	.st144{fill:#648F70;}
	.st145{fill:#638E70;}
	.st146{fill:#638D6F;}
	.st147{fill:#628D6E;}
	.st148{fill:#618C6D;}
	.st149{fill:#608B6D;}
	.st150{fill:#5F8B6C;}
	.st151{fill:#5E8A6B;}
	.st152{fill:#5E896A;}
	.st153{fill:#5D8869;}
	.st154{fill:#5C8769;}
	.st155{fill:#5B8768;}
	.st156{fill:#5A8667;}
	.st157{fill:#598666;}
	.st158{fill:#588566;}
	.st159{fill:#578465;}
	.st160{fill:#568464;}
	.st161{fill:#558363;}
	.st162{fill:#548262;}
	.st163{fill:#538161;}
	.st164{fill:#528160;}
	.st165{fill:#518060;}
	.st166{fill:#50805F;}
	.st167{fill:#4F805E;}
	.st168{fill:#4E7F5D;}
	.st169{fill:#4D7F5D;}
	.st170{fill:#4C7E5C;}
	.st171{fill:#4C7E5B;}
	.st172{fill:#4B7D5B;}
	.st173{fill:#4A7D5A;}
	.st174{fill:#497C59;}
	.st175{fill:#487B58;}
	.st176{fill:#477B58;}
	.st177{fill:#467A57;}
	.st178{fill:#467A56;}
	.st179{fill:#447956;}
	.st180{fill:#447955;}
	.st181{fill:#437854;}
	.st182{fill:#427853;}
	.st183{fill:#417753;}
	.st184{fill:#407652;}
	.st185{fill:#3E7551;}
	.st186{fill:#3D7450;}
	.st187{fill:#3C744F;}
	.st188{fill:#3B734F;}
	.st189{fill:#3A734E;}
	.st190{fill:#2C655E;}
	.st191{clip-path:url(#SVGID_00000025423605661187970220000006172968101248263056_);}
	.st192{clip-path:url(#SVGID_00000016796901298602504930000014532107456336775352_);}
	.st193{fill:#A5B3B1;}
	.st194{fill:#A4B2B1;}
	.st195{fill:#A3B1B0;}
	.st196{fill:#A2B1AF;}
	.st197{fill:#A1B0AE;}
	.st198{fill:#A0AFAE;}
	.st199{fill:#9FAEAD;}
	.st200{fill:#9EAEAC;}
	.st201{fill:#9DADAC;}
	.st202{fill:#9CACAB;}
	.st203{fill:#9BACAA;}
	.st204{fill:#9AABA9;}
	.st205{fill:#99AAA9;}
	.st206{fill:#98AAA8;}
	.st207{fill:#97A9A7;}
	.st208{fill:#96A8A7;}
	.st209{fill:#96A8A6;}
	.st210{fill:#95A7A5;}
	.st211{fill:#94A6A4;}
	.st212{fill:#93A6A4;}
	.st213{fill:#93A5A3;}
	.st214{fill:#92A4A2;}
	.st215{fill:#91A4A2;}
	.st216{fill:#90A3A1;}
	.st217{fill:#8FA2A0;}
	.st218{fill:#8EA2A0;}
	.st219{fill:#8DA19F;}
	.st220{fill:#8CA19E;}
	.st221{fill:#8BA09E;}
	.st222{fill:#8A9F9D;}
	.st223{fill:#8A9F9C;}
	.st224{fill:#899E9C;}
	.st225{fill:#889D9B;}
	.st226{fill:#889D9A;}
	.st227{fill:#879C9A;}
	.st228{fill:#869C99;}
	.st229{fill:#859B98;}
	.st230{fill:#849A98;}
	.st231{fill:#839A97;}
	.st232{fill:#829996;}
	.st233{fill:#819996;}
	.st234{fill:#819895;}
	.st235{fill:#809794;}
	.st236{fill:#7F9693;}
	.st237{fill:#7E9692;}
	.st238{fill:#7D9592;}
	.st239{fill:#7C9491;}
	.st240{fill:#7B9390;}
	.st241{fill:#7B938F;}
	.st242{fill:#7A928F;}
	.st243{fill:#79928E;}
	.st244{fill:#78918D;}
	.st245{fill:#77908D;}
	.st246{fill:#76908C;}
	.st247{fill:#758F8C;}
	.st248{fill:#748F8B;}
	.st249{fill:#748E8A;}
	.st250{fill:#738E8A;}
	.st251{fill:#728D89;}
	.st252{fill:#718C88;}
	.st253{fill:#708B87;}
	.st254{fill:#6F8B87;}
	.st255{fill:#6F8A86;}
	.st256{fill:#6E8A85;}
	.st257{fill:#6D8985;}
	.st258{fill:#6C8984;}
	.st259{fill:#6B8884;}
	.st260{fill:#6A8783;}
	.st261{fill:#698682;}
	.st262{fill:#698681;}
	.st263{fill:#688581;}
	.st264{fill:#678580;}
	.st265{fill:#668480;}
	.st266{fill:#658480;}
	.st267{fill:#64837F;}
	.st268{fill:#63837F;}
	.st269{fill:#62827E;}
	.st270{fill:#61817D;}
	.st271{fill:#60807C;}
	.st272{fill:#5F807C;}
	.st273{fill:#5E807B;}
	.st274{fill:#5D807A;}
	.st275{fill:#5C7F7A;}
	.st276{fill:#5C7F79;}
	.st277{fill:#5B7E79;}
	.st278{fill:#5A7E78;}
	.st279{fill:#597D78;}
	.st280{fill:#597D77;}
	.st281{fill:#587C77;}
	.st282{fill:#577C76;}
	.st283{fill:#567B76;}
	.st284{fill:#567B75;}
	.st285{fill:#557A75;}
	.st286{fill:#547A74;}
	.st287{fill:#537974;}
	.st288{fill:#527973;}
	.st289{fill:#517873;}
	.st290{fill:#517872;}
	.st291{fill:#507772;}
	.st292{fill:#4F7771;}
	.st293{fill:#4E7671;}
	.st294{fill:#4D7670;}
	.st295{fill:#4C756F;}
	.st296{fill:#4B756F;}
	.st297{fill:#4A746E;}
	.st298{fill:#49736D;}
	.st299{fill:#47736D;}
	.st300{fill:#46726C;}
	.st301{fill:#45716B;}
	.st302{fill:#44716B;}
	.st303{fill:#44716A;}
	.st304{fill:#43706A;}
	.st305{fill:#427069;}
	.st306{fill:#416F69;}
	.st307{fill:#406F68;}
	.st308{fill:#3F6E68;}
	.st309{fill:#3E6E67;}
	.st310{fill:#3D6D66;}
	.st311{fill:#3C6D66;}
	.st312{fill:#3B6C65;}
	.st313{fill:#3A6B65;}
	.st314{fill:#396A65;}
	.st315{fill:#396A64;}
	.st316{fill:#376964;}
	.st317{fill:#376963;}
	.st318{fill:#366963;}
	.st319{fill:#356862;}
	.st320{fill:#346862;}
	.st321{fill:#336761;}
	.st322{fill:#326761;}
	.st323{fill:#316760;}
	.st324{fill:#306660;}
	.st325{fill:#2F6660;}
	.st326{fill:#2E655F;}
	.st327{fill:#2D655F;}
	.st328{opacity:0.66;clip-path:url(#SVGID_00000153663223496308515060000010699631916299910317_);}
	.st329{clip-path:url(#SVGID_00000128444620450818367050000018236619867541924525_);}
	.st330{clip-path:url(#SVGID_00000044170904745743292170000010528634411297175742_);}
	.st331{opacity:0.66;clip-path:url(#SVGID_00000017477256023745729220000000465205261602389406_);}
	.st332{clip-path:url(#SVGID_00000022549092649628741260000015759947622693477304_);}
	.st333{clip-path:url(#SVGID_00000181794799094803663110000006764866791543841213_);}
	.st334{opacity:0.66;clip-path:url(#SVGID_00000054973320309562741420000002864853505026628007_);}
	.st335{clip-path:url(#SVGID_00000067209948051835356830000000965768221258057355_);}
	.st336{clip-path:url(#SVGID_00000142864222323402707930000013127800546295641010_);}
	.st337{opacity:0.66;clip-path:url(#SVGID_00000165926631810914140300000006987621160329203107_);}
	.st338{clip-path:url(#SVGID_00000127745541940747938070000013886564770515274926_);}
	.st339{clip-path:url(#SVGID_00000170983381613256206440000013727310837696431488_);}
	.st340{opacity:0.66;clip-path:url(#SVGID_00000080890194896675970620000008733519246166457523_);}
	.st341{clip-path:url(#SVGID_00000147206953444884508900000011136770087413250449_);}
	.st342{clip-path:url(#SVGID_00000151544718686129521870000008608818824384130225_);}
	.st343{opacity:0.66;clip-path:url(#SVGID_00000058567671757746423010000007969017442764170630_);}
	.st344{clip-path:url(#SVGID_00000182492747265405952020000000310270479196340399_);}
	.st345{clip-path:url(#SVGID_00000069379433506787704060000012608268239021431738_);}
	.st346{opacity:0.66;clip-path:url(#SVGID_00000025412815332730590470000018336676291420363684_);}
	.st347{clip-path:url(#SVGID_00000170263136028612350560000012203559533795690645_);}
	.st348{clip-path:url(#SVGID_00000066497608833005674260000008843798603018380184_);}
	.st349{opacity:0.66;clip-path:url(#SVGID_00000114791991435943773450000017904862468745623939_);}
	.st350{clip-path:url(#SVGID_00000109733532171064192190000012743123925708933791_);}
	.st351{clip-path:url(#SVGID_00000042706838353220737230000006241652791234627998_);}
	.st352{opacity:0.66;clip-path:url(#SVGID_00000159446367578328336210000003145335954039823776_);}
	.st353{clip-path:url(#SVGID_00000052787597473700649400000004259300714965775530_);}
	.st354{clip-path:url(#SVGID_00000001631971348175911450000002270371424339030194_);}
	.st355{opacity:0.66;clip-path:url(#SVGID_00000085229171911908470480000017421589993467423918_);}
	.st356{clip-path:url(#SVGID_00000014614314423835384210000004196061363424737952_);}
	.st357{clip-path:url(#SVGID_00000143614669658196848620000001818797711996720782_);}
	.st358{opacity:0.66;clip-path:url(#SVGID_00000069400446091755156470000018215752107528763836_);}
	.st359{clip-path:url(#SVGID_00000081637312890918709850000013255895388682969239_);}
	.st360{clip-path:url(#SVGID_00000122702553367754652000000012231969813554497683_);}
	.st361{opacity:0.66;clip-path:url(#SVGID_00000060728045149740592610000005756804025783990684_);}
	.st362{clip-path:url(#SVGID_00000141427229149333147550000010410627760563234957_);}
	.st363{clip-path:url(#SVGID_00000059303442225726062870000010323533604097056402_);}
	.st364{fill:#4BA459;}
	.st365{fill:#66B784;}
	.st366{fill:#357961;}
	.st367{fill:#C5A87E;}
	.st368{fill:#404040;}
	.st369{fill:#313133;}
	.st370{fill:#ABCEA1;}
	.st371{fill:#4C7B94;}
	.st372{fill:#55ABA4;}
	.st373{fill:#326A66;}
	.st374{fill:#4FADBE;}
	.st375{fill:#102E53;}
	.st376{fill:#215156;}
	.st377{fill:#89CBC6;}
	.st378{fill:#4AA288;}
	.st379{fill:#49A188;}
	.st380{fill:#39818A;}
	.st381{fill:#1301B2;}
	.st382{fill:#EA5428;}
	.st383{fill:#77787B;}
	.st384{fill:#B2D5AE;}
	.st385{fill:#5E8AA5;}
	.st386{fill:#55B6B1;}
	.st387{fill:#377D79;}
	.st388{fill:#54B8C9;}
	.st389{fill:#2A6C45;}
	.st390{fill:#1E3828;}
	.st391{fill:#221F20;}
	.st392{fill:#2A5D3D;}
	.st393{fill:url(#SVGID_00000062178323956770071280000015809671007673836705_);}
	.st394{fill:#CF3732;}
	.st395{fill:#D03732;}
	.st396{fill:#FFF150;}
	.st397{fill:url(#SVGID_00000000919962635852426630000010018439455350792341_);}
	.st398{fill:url(#SVGID_00000133525945538669144600000007342335880091410833_);}
	.st399{fill:#346046;}
	.st400{fill:#9DD2DC;}
	.st401{fill:url(#SVGID_00000033341878236841881900000008371212563840005054_);}
	.st402{fill:url(#SVGID_00000155836462169581740630000010094786222185847480_);}
	.st403{fill:url(#SVGID_00000140729345110319571060000014314880183835689142_);}
	.st404{fill:url(#SVGID_00000045587389009790008430000015977982793272498070_);}
	.st405{fill:#FFF24A;}
	.st406{fill:#947037;}
	.st407{fill:#68A380;}
	.st408{fill:none;}
	.st409{fill:#337585;}
	.st410{fill:#101E27;}
	.st411{fill:#2A645E;}
	.st412{fill:#8DAD9A;}
	.st413{fill:#3D352E;}
</style>
<linearGradient id="SVGID_1_" gradientUnits="userSpaceOnUse" x1="-2467" y1="7041" x2="-2467" y2="7040">
	<stop  offset="0" style="stop-color:#656565"/>
	<stop  offset="0.618" style="stop-color:#1B1B1B"/>
	<stop  offset="0.6292" style="stop-color:#545454"/>
	<stop  offset="0.9831" style="stop-color:#3E3E3E"/>
</linearGradient>
<g id="Layer_1" class="st0">
	<g class="st1">
		<path class="st2" d="M141,141v718h718V141H141z M753,753H247V247h506V753z"/>
	</g>
</g>
<g id="Layer_2">
	<g>
		<g>
			<polygon class="st383" points="241.2,675 235.2,675 235.2,673.1 249.6,673.1 249.6,675 243.5,675 243.5,693 241.2,693 			"/>
			<path class="st383" d="M249.8,691.6c-0.9-1.1-1.4-3-1.4-5.3c0-2.3,0.5-4.6,1.4-5.9c0.9-1.2,2.5-2,4.6-2c2.1,0,3.4,0.5,4.3,1.6
				c0.9,1.1,1.4,2.8,1.4,5.2v1.6h-9.6c0,1.2,0,2.1,0.4,2.8c0.4,0.7,0.7,1.1,1.4,1.4s1.4,0.4,2.7,0.4c1.2,0,1.2,0,2,0
				c0.7,0,1.4,0,2,0h0.9v1.6c-2.1,0.4-3.9,0.5-5.3,0.5c-2.1,0-3.7-0.5-4.6-1.8 M258.1,685c0-1.8-0.4-3-0.9-3.7s-1.4-1.1-2.7-1.1
				c-1.2,0-2.3,0.4-2.8,1.2c-0.7,0.7-0.9,2-0.9,3.7h7.5l0,0L258.1,685z"/>
			<path class="st383" d="M265,692.7c-0.9-0.5-1.4-1.2-1.8-2.3s-0.5-2.5-0.5-4.3c0-1.8,0.4-4.1,1.1-5.5c0.7-1.4,2.3-2,4.4-2
				s1.2,0,1.8,0c0.7,0,1.4,0.2,2.5,0.4v1.8c-1.6-0.2-2.8-0.2-3.6-0.2s-2,0.2-2.5,0.5s-1.1,0.9-1.2,1.8c-0.2,0.9-0.4,2-0.4,3.4
				c0,1.4,0,2.5,0.4,3.2s0.7,1.4,1.2,1.8c0.5,0.4,1.4,0.5,2.7,0.5h3.4c0-0.2,0,1.6,0,1.6c-1.8,0.2-3.2,0.4-4.1,0.4
				c-1.4,0-2.7-0.2-3.4-0.7"/>
			<path class="st383" d="M275.7,672.4h2.1v7.1c0.9-0.4,1.6-0.7,2.3-0.9c0.7-0.2,1.4-0.2,2.1-0.2c1.2,0,2.1,0.2,2.8,0.7
				c0.7,0.5,1.1,1.2,1.4,2.1c0.4,1.1,0.4,2.5,0.4,4.3v7.6h-2.1v-7.5c0-1.4,0-2.5-0.2-3.2c0-0.7-0.5-1.2-0.9-1.6
				c-0.4-0.4-1.1-0.5-2-0.5c-0.9,0-2.3,0.2-3.4,0.7h-0.5v12.1h-2.1v-20.6l0,0V672.4z"/>
			<path class="st383" d="M290.8,678.6h2.1v1.1c0.9-0.5,1.6-0.9,2.3-1.1c0.7-0.2,1.4-0.4,2.3-0.4c1.2,0,2.1,0.2,2.8,0.7
				c0.7,0.5,1.1,1.2,1.4,2.1c0.4,1.1,0.4,2.5,0.4,4.3v7.6h-2.1v-7.5c0-1.4,0-2.5-0.2-3.2c0-0.7-0.5-1.2-0.9-1.6
				c-0.4-0.4-1.1-0.5-1.8-0.5c-0.7,0-1.2,0-2,0.2c-0.7,0-1.2,0.4-1.6,0.5h-0.5v11.9H291v-14.4l0,0L290.8,678.6z"/>
			<path class="st383" d="M305.9,672.9h2.1v2.5h-2.1V672.9z M305.9,678.6h2.1V693h-2.1V678.6z"/>
			<path class="st383" d="M313.6,692.7c-0.9-0.5-1.4-1.2-1.8-2.3c-0.4-1.1-0.5-2.5-0.5-4.3c0-1.8,0.4-4.1,1.1-5.5
				c0.7-1.4,2.3-2,4.4-2s1.2,0,1.8,0s1.4,0.2,2.5,0.4v1.8c-1.6-0.2-2.8-0.2-3.6-0.2s-2,0.2-2.5,0.5s-1.1,0.9-1.2,1.8
				c-0.2,0.9-0.4,2-0.4,3.4c0,1.4,0,2.5,0.4,3.2c0.2,0.7,0.7,1.4,1.2,1.8c0.5,0.4,1.4,0.5,2.7,0.5h3.4c0-0.2,0,1.6,0,1.6
				c-1.8,0.2-3.2,0.4-4.1,0.4c-1.4,0-2.7-0.2-3.4-0.7"/>
			<path class="st383" d="M324.3,692.3c-0.7-0.7-1.1-1.8-1.1-3.2c0-1.4,0.4-2.5,1.1-3c0.7-0.7,1.8-1.1,3.4-1.2l4.4-0.4v-1.2
				c0-1.8-0.7-2.7-2.3-2.7c-1.6,0-3.4,0-5.7,0.4v-1.6c2-0.4,3.9-0.7,5.5-0.7c1.6,0,2.8,0.4,3.6,1.1c0.7,0.7,1.1,2,1.1,3.6v7.3
				c0,0.7,0.7,1.1,1.6,1.2v1.8c-1.6,0-2.7-0.4-3.6-1.1c-1.8,0.7-3.4,1.1-5.2,1.1s-2.3-0.4-3-1.1 M331.4,690.9h0.7v-5l-4.3,0.4
				c-0.9,0-1.4,0.4-1.8,0.7c-0.4,0.4-0.5,1.1-0.5,1.8c0,1.8,0.7,2.7,2.1,2.7s2.7-0.2,3.9-0.7"/>
			<rect x="338.5" y="672.4" class="st383" width="2.1" height="20.6"/>
			<path class="st383" d="M350.7,692.3c-0.7-0.7-1.1-1.8-1.1-3.2c0-1.4,0.4-2.5,1.1-3c0.7-0.7,1.8-1.1,3.4-1.2l4.4-0.4v-1.2
				c0-1.8-0.7-2.7-2.3-2.7s-3.4,0-5.7,0.4v-1.6c2-0.4,3.9-0.7,5.5-0.7c1.6,0,2.8,0.4,3.6,1.1c0.7,0.7,1.1,2,1.1,3.6v7.3
				c0,0.7,0.7,1.1,1.6,1.2v1.8c-1.6,0-2.7-0.4-3.6-1.1c-1.8,0.7-3.4,1.1-5.2,1.1c-1.8,0-2.3-0.4-3-1.1 M358,690.9h0.7v-5l-4.3,0.4
				c-0.9,0-1.4,0.4-1.8,0.7c-0.4,0.4-0.5,1.1-0.5,1.8c0,1.8,0.7,2.7,2.1,2.7s2.7-0.2,3.9-0.7"/>
			<path class="st383" d="M364.8,678.6h2.1v1.1c0.9-0.5,1.6-0.9,2.3-1.1c0.7-0.2,1.4-0.4,2.3-0.4c1.2,0,2.1,0.2,2.8,0.7
				c0.7,0.5,1.1,1.2,1.4,2.1c0.4,1.1,0.4,2.5,0.4,4.3v7.6H374v-7.5c0-1.4,0-2.5-0.2-3.2c0-0.7-0.5-1.2-0.9-1.6
				c-0.4-0.4-1.1-0.5-1.8-0.5s-1.2,0-2,0.2c-0.7,0-1.2,0.4-1.6,0.5h-0.5v11.9H365v-14.4l0,0L364.8,678.6z"/>
			<path class="st383" d="M380.6,691.6c-0.7-1.2-1.2-3-1.2-5.5c0-2.5,0.5-4.8,1.4-5.9c0.9-1.1,2.5-1.8,4.6-1.8s2.3,0,3.4,0.4v-6.4
				h2.1V693h-2.1v-0.9c-1.4,0.9-3,1.2-4.4,1.2c-1.4,0-3.2-0.5-3.9-1.8 M386.7,691.2c0.7,0,1.2-0.4,1.6-0.5h0.5v-10
				c-1.2-0.2-2.3-0.4-3.2-0.4c-1.6,0-2.7,0.4-3.2,1.4s-0.9,2.3-0.9,4.4s0.2,3.2,0.7,4.1s1.4,1.4,2.5,1.4c1.1,0,1.1,0,1.8-0.2"/>
			<polygon class="st383" points="399.6,673.1 401.9,673.1 406.6,691.1 408.2,691.1 412.8,673.1 415.1,673.1 409.8,693 404.8,693 
							"/>
			<path class="st383" d="M418.5,692.7c-0.9-0.5-1.6-1.2-2-2.3s-0.5-2.5-0.5-4.3c0-1.8,0.2-3.4,0.5-4.4c0.4-1.1,1.1-2,2-2.5
				c0.9-0.5,2.1-0.7,3.6-0.7c1.4,0,2.7,0.2,3.6,0.7c0.9,0.5,1.6,1.4,2,2.5c0.4,1.1,0.5,2.5,0.5,4.4c0,2-0.2,3.2-0.5,4.3
				c-0.4,1.1-1.1,1.8-2,2.3c-0.9,0.5-2.1,0.7-3.7,0.7c-1.6,0-2.7-0.2-3.7-0.7 M424.5,690.9c0.5-0.4,0.9-0.9,1.2-1.8
				c0.2-0.7,0.4-2,0.4-3.4c0-1.4,0-2.7-0.4-3.4c-0.4-0.7-0.7-1.4-1.2-1.8c-0.5-0.4-1.4-0.5-2.5-0.5s-1.8,0.2-2.5,0.5
				s-0.9,0.9-1.2,1.8c-0.4,0.9-0.4,2-0.4,3.4c0,1.4,0,2.5,0.4,3.4c0.2,0.7,0.7,1.4,1.2,1.8c0.5,0.4,1.4,0.5,2.5,0.5
				S423.8,691.2,424.5,690.9"/>
			<path class="st383" d="M433.2,692.7c-0.9-0.5-1.4-1.2-1.8-2.3s-0.5-2.5-0.5-4.3c0-1.8,0.4-4.1,1.1-5.5c0.7-1.4,2.3-2,4.4-2
				c2.1,0,1.2,0,1.8,0c0.7,0,1.4,0.2,2.5,0.4v1.8c-1.6-0.2-2.8-0.2-3.6-0.2s-2,0.2-2.5,0.5c-0.5,0.4-1.1,0.9-1.2,1.8
				c-0.2,0.9-0.4,2-0.4,3.4c0,1.4,0,2.5,0.4,3.2c0.2,0.7,0.7,1.4,1.2,1.8c0.5,0.4,1.4,0.5,2.7,0.5h3.4c0-0.2,0,1.6,0,1.6
				c-1.8,0.2-3.2,0.4-4.1,0.4c-1.4,0-2.7-0.2-3.4-0.7"/>
			<path class="st383" d="M443.9,692.3c-0.7-0.7-1.1-1.8-1.1-3.2c0-1.4,0.4-2.5,1.1-3c0.7-0.7,1.8-1.1,3.4-1.2l4.4-0.4v-1.2
				c0-1.8-0.7-2.7-2.3-2.7c-1.6,0-3.4,0-5.7,0.4v-1.6c2-0.4,3.9-0.7,5.5-0.7s2.8,0.4,3.6,1.1c0.7,0.7,1.1,2,1.1,3.6v7.3
				c0,0.7,0.7,1.1,1.6,1.2v1.8c-1.6,0-2.7-0.4-3.6-1.1c-1.8,0.7-3.4,1.1-5.2,1.1s-2.3-0.4-3-1.1 M451.2,690.9h0.7v-5l-4.3,0.4
				c-0.9,0-1.4,0.4-1.8,0.7c-0.4,0.4-0.5,1.1-0.5,1.8c0,1.8,0.7,2.7,2.1,2.7s2.7-0.2,3.9-0.7"/>
			<path class="st383" d="M460.3,692.8c-0.5-0.4-0.9-0.9-1.2-1.6c-0.4-0.7-0.4-1.8-0.4-3.2v-7.6h-2v-1.8h2v-4.4h2.1v4.4h4.6v1.8
				h-4.6v6.9c0,1.1,0,2,0,2.5c0,0.5,0.2,0.9,0.5,1.2s0.7,0.4,1.4,0.4h2.5c0-0.2,0,1.6,0,1.6c-1.4,0.2-2.5,0.4-3,0.4
				c-0.9,0-1.8,0-2.3-0.5"/>
			<path class="st383" d="M467.7,672.9h2.1v2.5h-2.1V672.9z M467.7,678.6h2.1V693h-2.1V678.6z"/>
			<path class="st383" d="M475.4,692.7c-0.9-0.5-1.6-1.2-2-2.3c-0.4-1.1-0.5-2.5-0.5-4.3c0-1.8,0.2-3.4,0.5-4.4c0.4-1.1,1.1-2,2-2.5
				c0.9-0.5,2.1-0.7,3.6-0.7c1.4,0,2.7,0.2,3.6,0.7c0.9,0.5,1.6,1.4,2,2.5c0.4,1.1,0.5,2.5,0.5,4.4c0,2-0.2,3.2-0.5,4.3
				c-0.4,1.1-1.1,1.8-2,2.3c-0.9,0.5-2.1,0.7-3.7,0.7c-1.6,0-2.7-0.2-3.7-0.7 M481.6,690.9c0.5-0.4,0.9-0.9,1.1-1.8
				c0.2-0.9,0.4-2,0.4-3.4c0-1.4,0-2.7-0.4-3.4c-0.4-0.7-0.7-1.4-1.2-1.8s-1.4-0.5-2.3-0.5c-0.9,0-1.8,0.2-2.5,0.5s-0.9,0.9-1.2,1.8
				c-0.2,0.9-0.4,2-0.4,3.4c0,1.4,0,2.5,0.4,3.4c0.2,0.7,0.7,1.4,1.2,1.8s1.4,0.5,2.5,0.5S480.9,691.2,481.6,690.9"/>
			<path class="st383" d="M488.5,678.6h2.1v1.1c0.9-0.5,1.6-0.9,2.3-1.1c0.7-0.2,1.4-0.4,2.3-0.4c1.2,0,2.1,0.2,2.8,0.7
				c0.7,0.5,1.1,1.2,1.4,2.1c0.4,1.1,0.4,2.5,0.4,4.3v7.6h-2.1v-7.5c0-1.4,0-2.5-0.2-3.2c0-0.7-0.5-1.2-0.9-1.6
				c-0.4-0.4-1.1-0.5-1.8-0.5s-1.2,0-2,0.2c-0.7,0-1.2,0.4-1.6,0.5h-0.5v11.9h-2.1v-14.4l0,0L488.5,678.6z"/>
			<path class="st383" d="M503.8,692.3c-0.7-0.7-1.1-1.8-1.1-3.2c0-1.4,0.4-2.5,1.1-3c0.7-0.7,1.8-1.1,3.4-1.2l4.4-0.4v-1.2
				c0-1.8-0.7-2.7-2.3-2.7s-3.4,0-5.7,0.4v-1.6c2-0.4,3.9-0.7,5.5-0.7s2.8,0.4,3.6,1.1c0.7,0.7,1.1,2,1.1,3.6v7.3
				c0,0.7,0.7,1.1,1.6,1.2v1.8c-1.6,0-2.7-0.4-3.6-1.1c-1.8,0.7-3.4,1.1-5.2,1.1s-2.3-0.4-3-1.1 M511.1,690.9h0.7v-5l-4.3,0.4
				c-0.9,0-1.4,0.4-1.8,0.7c-0.4,0.4-0.5,1.1-0.5,1.8c0,1.8,0.7,2.7,2.1,2.7c1.4,0,2.7-0.2,3.9-0.7"/>
			<rect x="518" y="672.4" class="st383" width="2.1" height="20.6"/>
			<polygon class="st383" points="534.8,675 528.5,675 528.5,673.1 542.9,673.1 542.9,675 536.9,675 536.9,693 534.8,693 			"/>
			<path class="st383" d="M542.8,678.6h2.1v2c1.6-1.1,3.4-2,5.3-2.3v2.1c-0.7,0-1.6,0.4-2.5,0.7c-0.9,0.4-1.6,0.5-2.1,0.9l-0.7,0.4
				V693h-2.1V678.6L542.8,678.6L542.8,678.6z"/>
			<path class="st383" d="M552.5,692.3c-0.7-0.7-1.1-1.8-1.1-3.2c0-1.4,0.4-2.5,1.1-3c0.7-0.7,1.8-1.1,3.4-1.2l4.4-0.4v-1.2
				c0-1.8-0.7-2.7-2.3-2.7s-3.4,0-5.7,0.4v-1.6c2-0.4,3.9-0.7,5.5-0.7s2.8,0.4,3.6,1.1s1.1,2,1.1,3.6v7.3c0,0.7,0.7,1.1,1.6,1.2v1.8
				c-1.6,0-2.7-0.4-3.6-1.1c-1.8,0.7-3.4,1.1-5.2,1.1c-1.8,0-2.3-0.4-3-1.1 M559.6,690.9h0.7v-5l-4.3,0.4c-0.9,0-1.4,0.4-2,0.7
				c-0.4,0.4-0.5,1.1-0.5,1.8c0,1.8,0.7,2.7,2.1,2.7s2.7-0.2,3.9-0.7"/>
			<path class="st383" d="M566.6,672.9h2.1v2.5h-2.1V672.9z M566.6,678.6h2.1V693h-2.1V678.6z"/>
			<path class="st383" d="M572.5,678.6h2.1v1.1c0.9-0.5,1.6-0.9,2.3-1.1s1.4-0.4,2.3-0.4c1.2,0,2.1,0.2,2.8,0.7
				c0.7,0.5,1.1,1.2,1.4,2.1c0.4,1.1,0.4,2.5,0.4,4.3v7.6h-2.1v-7.5c0-1.4,0-2.5-0.2-3.2c0-0.7-0.5-1.2-0.9-1.6
				c-0.4-0.4-1.1-0.5-1.8-0.5c-0.7,0-1.2,0-2,0.2c-0.7,0-1.2,0.4-1.6,0.5h-0.5v11.9h-2.1v-14.4l0,0L572.5,678.6z"/>
			<path class="st383" d="M587.7,672.9h2.1v2.5h-2.1V672.9z M587.7,678.6h2.1V693h-2.1V678.6z"/>
			<path class="st383" d="M593.6,678.6h2.1v1.1c0.9-0.5,1.6-0.9,2.3-1.1s1.4-0.4,2.3-0.4c1.2,0,2.1,0.2,2.8,0.7
				c0.7,0.5,1.2,1.2,1.4,2.1c0.4,1.1,0.4,2.5,0.4,4.3v7.6h-2.1v-7.5c0-1.4,0-2.5-0.2-3.2s-0.5-1.2-0.9-1.6c-0.4-0.4-1.1-0.5-1.8-0.5
				c-0.7,0-1.2,0-2,0.2c-0.7,0-1.2,0.4-1.6,0.5h-0.5v11.9h-2.1v-14.4l0,0L593.6,678.6z"/>
			<path class="st383" d="M609.6,698.9c-0.9-0.7-1.4-1.8-1.4-3.2c0-1.4,0-1.1,0.2-1.6c0.2-0.5,0.4-0.7,0.7-1.1
				c0.4-0.4,0.7-0.7,1.4-1.2c-0.4-0.2-0.5-0.4-0.5-0.7s-0.2-0.7-0.2-1.1s0-0.5,0-0.9c0-0.4,0.4-0.9,0.9-1.6
				c-1.4-0.7-2.3-2.1-2.3-4.3c0-2.1,0.4-2.8,1.4-3.7s2.3-1.2,4.1-1.2c1.8,0,1.8,0,3,0.4h4.3v1.8h-2.7c0.4,0.2,0.5,0.7,0.7,1.1
				c0,0.5,0.2,1.1,0.2,1.8c0,1.8-0.4,2.8-1.2,3.7c-0.9,0.7-2.3,1.1-4.1,1.1c-1.8,0-1.1,0-1.4,0c0,0.4-0.4,0.7-0.4,1.1s0,0.5,0,0.7
				c0,0.5,0.2,0.9,0.5,0.9s1.1,0.2,1.8,0.2h1.1c1.2,0,2.3,0,3,0.4c0.7,0.2,1.4,0.5,1.8,1.2c0.4,0.5,0.7,1.4,0.7,2.5
				c0,1.6-0.5,2.8-1.6,3.7c-1.1,0.7-2.7,1.1-5.2,1.1s-3.7-0.4-4.6-0.9 M617.6,697.5c0.7-0.4,0.9-1.2,0.9-2.3s0-1.1-0.4-1.4
				c-0.2-0.4-0.5-0.5-1.1-0.7c-0.5,0-1.2-0.2-2.1-0.2h-3.2c-0.7,0.4-1.1,0.7-1.2,1.1s-0.4,0.9-0.4,1.4c0,1.1,0.4,1.8,0.9,2.1
				s1.6,0.5,3,0.5s2.7-0.2,3.4-0.7 M616.4,685.7c0.5-0.5,0.7-1.2,0.7-2.5c0-1.2-0.2-2-0.7-2.5s-1.4-0.7-2.5-0.7
				c-1.1,0-2.1,0.2-2.5,0.7c-0.5,0.5-0.7,1.2-0.7,2.5c0,1.2,0.2,2,0.7,2.5c0.5,0.5,1.4,0.7,2.5,0.7
				C614.9,686.4,615.8,686.3,616.4,685.7"/>
			<path class="st383" d="M632,692.3c-1.1-0.7-1.8-1.8-2.3-3.4c-0.4-1.4-0.5-3.4-0.5-5.9c0-2.5,0.2-4.3,0.5-5.7
				c0.4-1.4,1.1-2.7,2.1-3.4c1.1-0.7,2.7-1.1,4.6-1.1s3.4,0.2,5.3,0.7v1.8c-2-0.4-3.7-0.5-5.2-0.5c-1.4,0-2.7,0.2-3.4,0.9
				c-0.7,0.5-1.2,1.4-1.6,2.7c-0.4,1.2-0.4,2.8-0.4,5.2s0,3.6,0.4,4.6s0.9,2,1.6,2.5c0.7,0.5,2,0.9,3.7,0.9c1.8,0,2.8-0.2,4.8-0.5v2
				c-2,0.4-3.6,0.5-5.2,0.5c-1.6,0-3.6-0.4-4.6-1.1"/>
			<path class="st383" d="M646.4,692.7c-0.9-0.5-1.6-1.2-2-2.3s-0.5-2.5-0.5-4.3c0-1.8,0.2-3.4,0.5-4.4c0.4-1.1,1.1-2,2-2.5
				s2.1-0.7,3.6-0.7s2.7,0.2,3.6,0.7c0.9,0.5,1.6,1.4,2,2.5c0.4,1.1,0.5,2.5,0.5,4.4c0,2-0.2,3.2-0.5,4.3c-0.4,1.1-1.1,1.8-2,2.3
				c-0.9,0.5-2.1,0.7-3.7,0.7c-1.6,0-2.7-0.2-3.7-0.7 M652.5,690.9c0.5-0.4,0.9-0.9,1.2-1.8c0.2-0.7,0.4-2,0.4-3.4
				c0-1.4,0-2.7-0.4-3.4c-0.4-0.7-0.5-1.4-1.2-1.8c-0.5-0.4-1.4-0.5-2.3-0.5c-0.9,0-1.8,0.2-2.3,0.5s-0.9,0.9-1.2,1.8
				c-0.4,0.9-0.4,2-0.4,3.4c0,1.4,0,2.5,0.4,3.4c0.2,0.7,0.5,1.4,1.2,1.8c0.5,0.4,1.4,0.5,2.5,0.5c1.1,0,1.8-0.2,2.5-0.5"/>
			<path class="st383" d="M659.6,678.6h2.1v2c1.6-1.1,3.4-2,5.3-2.3v2.1c-0.7,0-1.6,0.4-2.5,0.7c-0.9,0.4-1.6,0.5-2.1,0.9l-0.7,0.4
				V693h-2.1V678.6L659.6,678.6L659.6,678.6z"/>
			<path class="st383" d="M669.2,678.6h2.1v1.1c0.7-0.4,1.4-0.7,2.1-1.1c0.7-0.2,1.4-0.4,2.3-0.4c1.8,0,3,0.5,3.9,1.8
				c0.9,1.2,1.2,3,1.2,5.7c0,2.7-0.2,3.4-0.7,4.4c-0.5,1.1-1.1,2-2,2.5s-2.1,0.7-3.7,0.7c-1.6,0-2.1,0-3.2-0.4v6.4h-2.1L669.2,678.6
				L669.2,678.6L669.2,678.6z M677.7,690.2c0.7-0.9,0.9-2.3,0.9-4.3c0-2-0.4-3.4-0.9-4.3c-0.5-0.9-1.4-1.2-2.5-1.2
				c-1.1,0-1.2,0-1.8,0.2c-0.5,0.2-1.2,0.4-1.6,0.5l-0.5,0.4v9.8c1.4,0.2,2.5,0.4,3.2,0.4C675.9,691.6,677,691.2,677.7,690.2"/>
			<path class="st383" d="M685.9,692.7c-0.9-0.5-1.6-1.2-2-2.3s-0.5-2.5-0.5-4.3c0-1.8,0.2-3.4,0.5-4.4c0.4-1.1,1.1-2,2-2.5
				s2.1-0.7,3.6-0.7s2.7,0.2,3.6,0.7c0.9,0.5,1.6,1.4,2,2.5c0.4,1.1,0.5,2.5,0.5,4.4c0,2-0.2,3.2-0.5,4.3c-0.4,1.1-1.1,1.8-2,2.3
				s-2.1,0.7-3.7,0.7c-1.6,0-2.7-0.2-3.7-0.7 M692.1,690.9c0.5-0.4,0.9-0.9,1.2-1.8c0.2-0.7,0.4-2,0.4-3.4c0-1.4,0-2.7-0.4-3.4
				c-0.4-0.7-0.5-1.4-1.2-1.8c-0.5-0.4-1.4-0.5-2.3-0.5s-1.8,0.2-2.3,0.5c-0.5,0.4-0.9,0.9-1.2,1.8c-0.4,0.9-0.4,2-0.4,3.4
				c0,1.4,0,2.5,0.4,3.4c0.2,0.7,0.5,1.4,1.2,1.8c0.5,0.4,1.4,0.5,2.5,0.5s1.8-0.2,2.5-0.5"/>
			<path class="st383" d="M699,678.6h2.1v2c1.6-1.1,3.4-2,5.3-2.3v2.1c-0.7,0-1.6,0.4-2.5,0.7c-0.9,0.4-1.6,0.5-2.1,0.9l-0.7,0.4
				V693H699V678.6L699,678.6L699,678.6z"/>
			<path class="st383" d="M708.8,692.3c-0.7-0.7-1.1-1.8-1.1-3.2c0-1.4,0.4-2.5,1.1-3c0.7-0.7,1.8-1.1,3.4-1.2l4.4-0.4v-1.2
				c0-1.8-0.7-2.7-2.3-2.7c-1.6,0-3.4,0-5.7,0.4v-1.6c2-0.4,3.9-0.7,5.5-0.7c1.6,0,2.8,0.4,3.6,1.1c0.7,0.7,1.1,2,1.1,3.6v7.3
				c0,0.7,0.5,1.1,1.6,1.2v1.8c-1.6,0-2.7-0.4-3.6-1.1c-1.8,0.7-3.4,1.1-5.2,1.1c-1.8,0-2.3-0.4-3-1.1 M716.1,690.9h0.7v-5l-4.3,0.4
				c-0.9,0-1.4,0.4-1.8,0.7c-0.4,0.4-0.5,1.1-0.5,1.8c0,1.8,0.7,2.7,2.1,2.7s2.7-0.2,3.9-0.7"/>
			<path class="st383" d="M725.2,692.8c-0.5-0.4-0.9-0.9-1.2-1.6c-0.2-0.7-0.4-1.8-0.4-3.2v-7.6h-2.1v-1.8h2.1v-4.4h2.1v4.4h4.6v1.8
				h-4.6v6.9c0,1.1,0,2,0,2.5c0,0.5,0.4,0.9,0.5,1.2s0.7,0.4,1.4,0.4h2.5c0-0.2,0,1.6,0,1.6c-1.4,0.2-2.3,0.4-3,0.4
				c-0.7,0-1.8,0-2.3-0.5"/>
			<path class="st383" d="M732.6,672.9h2.1v2.5h-2.1V672.9z M732.6,678.6h2.1V693h-2.1V678.6z"/>
			<path class="st383" d="M740.3,692.7c-0.9-0.5-1.6-1.2-2-2.3c-0.4-1.1-0.5-2.5-0.5-4.3c0-1.8,0.2-3.4,0.5-4.4c0.4-1.1,1.1-2,2-2.5
				c0.9-0.5,2.1-0.7,3.6-0.7c1.4,0,2.7,0.2,3.6,0.7c0.9,0.5,1.6,1.4,2,2.5c0.4,1.1,0.5,2.5,0.5,4.4c0,2-0.2,3.2-0.5,4.3
				c-0.4,1.1-1.1,1.8-2,2.3c-0.9,0.5-2.1,0.7-3.7,0.7c-1.6,0-2.7-0.2-3.7-0.7 M746.5,690.9c0.5-0.4,0.9-0.9,1.2-1.8
				c0.2-0.7,0.4-2,0.4-3.4c0-1.4,0-2.7-0.4-3.4c-0.4-0.7-0.5-1.4-1.2-1.8c-0.5-0.4-1.4-0.5-2.3-0.5s-1.8,0.2-2.3,0.5
				c-0.5,0.4-0.9,0.9-1.2,1.8c-0.4,0.9-0.4,2-0.4,3.4c0,1.4,0,2.5,0.4,3.4c0.2,0.7,0.5,1.4,1.2,1.8c0.5,0.4,1.4,0.5,2.5,0.5
				s1.8-0.2,2.5-0.5"/>
			<path class="st383" d="M753.4,678.6h2.1v1.1c0.9-0.5,1.6-0.9,2.3-1.1c0.7-0.2,1.4-0.4,2.3-0.4c1.2,0,2.1,0.2,2.8,0.7
				c0.7,0.5,1.2,1.2,1.4,2.1c0.4,1.1,0.4,2.5,0.4,4.3v7.6h-2.1v-7.5c0-1.4,0-2.5-0.2-3.2s-0.5-1.2-0.9-1.6c-0.4-0.4-1.1-0.5-1.8-0.5
				c-0.7,0-1.2,0-2,0.2c-0.7,0-1.2,0.4-1.6,0.5h-0.5v11.9h-2.1v-14.4l0,0L753.4,678.6z"/>
			<path class="st383" d="M261.5,655.3h-3.7c0,2.5-0.5,4.3-1.8,5.5c-1.1,1.2-2.8,2-5,2h-8c-1.4,0-2.7-0.2-3.9-0.7
				c-1.2-0.5-2.3-1.2-3-2.3s-1.1-2.1-1.1-3.6s0.2-3.4,0.7-6.4l2.7,0.4c-0.4,2.7-0.5,4.4-0.5,5.3s0.2,1.8,0.7,2.3
				c0.5,0.7,1.1,1.2,1.8,1.6c0.7,0.4,1.6,0.5,2.7,0.5h8c1.2,0,2.3-0.4,3-1.2c0.7-0.7,1.1-2,1.1-3.4V655h-0.5c-0.7,0-1.4,0-2.1-0.2
				c-0.7,0-1.2-0.4-1.8-0.9l1.2-2.1c0.4,0.4,0.9,0.4,1.2,0.5c0.4,0,1.1,0,1.8,0h6.8v2.5l0,0L261.5,655.3z M243.4,664.9h2.5v2.8h-2.5
				V664.9z M247.3,664.9h2.5v2.8h-2.5V664.9z"/>
			<path class="st383" d="M273.9,652.8v2.5h-12.6v-2.5h4.4v-12.3h2.8v12.3H273.9z M265.8,634.9h2.7v2.8h-2.7V634.9z"/>
			<path class="st383" d="M297.9,652.8v2.5h-24v-2.5h3.4V651c0-1.1,0.2-2,0.7-2.8c0.5-0.9,1.2-1.6,2-2.1c0.9-0.5,1.8-0.7,2.8-0.7
				s2,0.2,2.8,0.7c0.9,0.5,1.6,1.2,2,2c0.5,0.9,0.7,1.8,0.7,2.8v1.8h3.9v-3.7c0-2.8-0.7-4.8-2.1-6c-1.4-1.1-3.2-1.8-5.3-1.8
				s-3.6,0.2-6.4,0.9v-2.1c2.7-0.7,5-1.1,7.1-1.1s3.6,0.4,5.2,1.1c1.4,0.7,2.7,1.8,3.6,3.4c0.9,1.6,1.2,3.4,1.2,5.7v3.7h2.8l0,0
				L297.9,652.8z M280.9,648.7c-0.5,0.5-0.9,1.2-0.9,2v2h5.5v-2c0-0.9-0.2-1.4-0.9-2c-0.5-0.5-1.2-0.9-2-0.9c-0.7,0-1.4,0.2-2,0.9"
				/>
			<path class="st383" d="M323.5,652.8v2.5h-1.1c-0.4,0-0.7,0-1.1-0.4c-0.4-0.2-0.7-0.5-1.1-0.9v1.2h-22.2v-2.5h9.4
				c-0.4-1.6-0.4-3.2-0.4-4.8s0-2.5,0.2-3.7c0.2-1.2,0.4-2.3,0.5-3.2c0.5-0.2,1.2-0.4,2.1-0.5c0.9-0.2,2-0.2,3-0.2
				c2.7,0,4.4,0.5,5.5,1.8c1.1,1.2,1.6,3.2,1.6,5.9v3.7c0.2,0.4,0.5,0.7,0.9,0.9c0.4,0.2,0.7,0.4,1.2,0.4h1.2V652.8z M309.9,650.7
				c0,0.9,0.2,1.6,0.4,2.1h7.3v-5c0-1.8-0.4-3.2-1.1-3.9c-0.7-0.9-2-1.2-3.6-1.2s-1.8,0-2.5,0.2c-0.4,1.8-0.4,3.6-0.4,5s0,1.8,0,2.7
				"/>
			<polygon class="st383" points="329.9,634.2 329.9,655.3 323.5,655.3 323.5,652.8 327.3,652.8 327.3,634.2 			"/>
			<rect x="335.1" y="634.2" class="st383" width="2.8" height="21.2"/>
			<path class="st383" d="M351.5,640.2c1.2,0,2.1,0.2,2.8,0.4v12.6c0,3-0.4,5.3-1.2,6.9c-0.7,1.6-2.3,2.5-4.4,2.5s-2.5,0-4.6-0.5
				v-2.5c2,0.4,3.4,0.5,4.4,0.5c1.1,0,1.2,0,1.6-0.4c0.4-0.2,0.7-0.7,0.9-1.4s0.4-1.8,0.4-3h-4.1c-2.3,0-3.7-0.7-4.4-2.1
				c-0.7-1.4-1.1-3.2-1.1-5.2c0-2,0.2-3.6,0.7-4.6c0.4-1.2,1.1-2,2-2.5c0.9-0.5,2.1-0.9,3.9-0.9S350.2,640,351.5,640.2 M345.4,651.4
				c0.5,0.9,1.4,1.4,3,1.4h3.2v-10.1c-0.9,0-1.8-0.2-2.7-0.2c-1.6,0-2.7,0.4-3.4,1.2c-0.7,0.9-0.9,2.3-0.9,4.3
				c0,1.4,0.2,2.7,0.7,3.6"/>
			<path class="st383" d="M390.2,655.3h-3.6c0,2.5-0.5,4.3-1.8,5.5c-1.1,1.2-2.8,2-5,2h-8c-1.4,0-2.7-0.2-3.9-0.7
				c-1.2-0.5-2.3-1.2-3-2.3c-0.7-1.1-1.1-2.1-1.1-3.6s0.2-3.4,0.7-6.4l2.7,0.4c-0.4,2.7-0.5,4.4-0.5,5.3s0.2,1.8,0.7,2.3
				c0.5,0.7,1.1,1.2,1.8,1.6c0.7,0.4,1.6,0.5,2.7,0.5h8c1.4,0,2.3-0.4,3-1.2c0.7-0.7,1.1-2,1.1-3.4V655h-0.5c-0.7,0-1.4,0-2.1-0.2
				c-0.7,0-1.2-0.4-1.8-0.9l1.2-2.1c0.4,0.4,0.9,0.4,1.2,0.5c0.4,0,1.1,0,1.8,0h6.8v2.5l0,0L390.2,655.3z M372.1,664.9h2.5v2.8h-2.5
				V664.9z M376,664.9h2.5v2.8H376V664.9z"/>
			<path class="st383" d="M401.8,652.8v2.5H390v-2.5h4.4v-12.3h2.8v12.3H401.8z M394.5,634.9h2.7v2.8h-2.7V634.9z"/>
			<path class="st383" d="M420.1,652.8v2.5h-18.5v-2.5h3.9c-0.5-1.1-0.7-2.7-0.7-4.8s0.2-3.6,0.7-4.6s1.2-1.8,2.3-2.3
				c1.1-0.5,2.5-0.7,4.4-0.7s2.8,0,4.3,0.2h1.1v12.1h2.7l0,0L420.1,652.8z M408,651.2c0.2,0.7,0.4,1.2,0.7,1.6h6V643
				c-1.2,0-2.1,0-2.7,0c-1.2,0-2.1,0-2.7,0.5c-0.7,0.4-1.1,0.9-1.2,1.6s-0.4,1.8-0.4,3.2C407.8,649.8,407.8,650.7,408,651.2
				 M408.2,634.9h2.5v2.8h-2.5V634.9z M412.1,634.9h2.5v2.8h-2.5V634.9z"/>
			<path class="st383" d="M431.8,652.8v2.5h-11.7v-2.5h4.4v-12.3h2.8v12.3H431.8z M422.7,634.9h2.5v2.8h-2.5V634.9z M426.7,634.9
				h2.5v2.8h-2.5V634.9z"/>
			<polygon class="st383" points="438.2,634.2 438.2,655.3 431.8,655.3 431.8,652.8 435.4,652.8 435.4,634.2 			"/>
			<rect x="443.4" y="634.2" class="st383" width="2.8" height="21.2"/>
			<path class="st383" d="M481.1,652.8v2.5h-16c-1.8,0-3.4,0-4.4-0.4s-2-0.9-2.7-1.6c-0.7-0.7-0.9-1.8-0.9-3.2c0-1.4,0-1.8,0.4-3
				c0.2-1.2,0.4-2.3,0.7-3.4h2.1l-0.2,2.3c-0.2,1.6-0.4,2.8-0.4,3.6c0,1.1,0.4,2,1.1,2.5c0.7,0.5,2.1,0.7,4.1,0.7h8.9v-12.3h2.8
				v12.3H481.1z M466.1,657.8h2.7v2.8h-2.7V657.8z"/>
			<path class="st383" d="M488.2,640.6v14.9h-7.3V653h4.4v-12.3h2.8V640.6z M483.6,657.8h2.5v2.8h-2.5V657.8z M487.6,657.8h2.5v2.8
				h-2.5V657.8z"/>
			<path class="st383" d="M492.4,662.6h-0.7v-2.5c0.7,0,1.2,0,1.6,0c0.9,0,1.6-0.4,2-1.1c0.4-0.7,0.7-1.8,0.7-3v-15.6h2.8v14.9
				c0,2.3-0.4,4.1-1.2,5.3c-0.9,1.2-2,1.8-3.7,1.8s-0.9,0-1.4,0"/>
			<path class="st383" d="M517.3,652.8v2.5H502v-2.5h9.6v-2.7c0-2.8-0.5-4.8-1.6-6c-1.1-1.1-2.3-1.8-3.9-1.8h-2.7v-2.1
				c0,0,0.5-0.2,1.2-0.4c0.7,0,1.2,0,2,0c1.4,0,2.7,0.4,3.9,1.1c1.1,0.7,2.1,1.8,2.8,3.4c0.7,1.6,1.1,3.4,1.1,5.9v2.8h3L517.3,652.8
				z"/>
			<path class="st383" d="M529.1,652.8v2.5h-11.7v-2.5h4.4v-12.3h2.8v12.3H529.1z M520,634.9h2.5v2.8H520V634.9z M523.9,634.9h2.5
				v2.8h-2.5V634.9z"/>
			<polygon class="st383" points="539,652.8 539,655.3 529.1,655.3 529.1,652.8 532.6,652.8 532.6,634.2 535.5,634.2 535.5,652.8 
							"/>
			<polygon class="st383" points="545.4,634.2 545.4,655.3 539,655.3 539,652.8 542.8,652.8 542.8,634.2 			"/>
			<path class="st383" d="M573.2,652.8v2.5H563c-1.8,0-3.2-0.2-4.3-0.7s-1.8-1.2-2.3-2.3s-0.7-2.7-0.7-4.4c0-1.8,0.2-3.4,0.7-4.4
				s1.2-2,2.1-2.3c1.1-0.5,2.5-0.7,4.3-0.7c1.8,0,2.1,0,3.6,0c1.6,0,2.7,0,3.4,0.2v12.3H573.2L573.2,652.8z M559.1,650.9
				c0.4,0.7,0.9,1.2,1.4,1.6c0.7,0.4,1.6,0.5,2.8,0.5h3.6v-10c-1.6,0-2.8-0.2-3.7-0.2c-0.9,0-2.1,0-2.8,0.5
				c-0.7,0.4-1.2,0.9-1.4,1.6c-0.4,0.7-0.4,1.8-0.4,2.8C558.6,648.9,558.6,650.2,559.1,650.9 M560.4,634.9h2.5v2.8h-2.5V634.9z
				 M564.4,634.9h2.5v2.8h-2.5V634.9z"/>
			<path class="st383" d="M589.2,642c1.1,1.2,1.6,3.2,1.6,5.9v7.5H573v-2.5h4.8c-0.4-1.6-0.4-3.2-0.4-4.8s0-2.5,0.2-3.7
				s0.4-2.3,0.5-3.2c0.5-0.2,1.2-0.4,2.1-0.5c0.9-0.2,2-0.2,3-0.2c2.7,0,4.4,0.5,5.5,1.8 M580.5,650.7c0,0.9,0.2,1.6,0.4,2.1h7.3v-5
				c0-1.8-0.4-3.2-1.1-3.9c-0.7-0.9-2-1.2-3.6-1.2c-1.6,0-1.8,0-2.5,0.2c-0.4,1.8-0.4,3.6-0.4,5s0,1.8,0,2.7"/>
			<polygon class="st383" points="600.7,652.8 600.7,655.3 595.2,655.3 595.2,634.2 598.1,634.2 598.1,652.8 			"/>
			<path class="st383" d="M619.6,652.8v2.5h-3.4c-0.9,0-2,0-3-0.4c-1.1-0.4-2-0.5-2.8-0.9c-0.9,0.4-1.8,0.7-2.8,0.9s-2,0.4-3,0.4
				h-3.7v-2.5h3.6c1.1,0,2.1-0.2,3.2-0.5c-1.4-1.1-2.7-2.5-3.6-3.9s-1.2-2.7-1.4-3.9v-2.3c1.1-0.7,2.3-1.2,3.6-1.6
				c1.2-0.4,2.7-0.5,3.9-0.5c1.2,0,2.5,0.2,3.9,0.5c1.2,0.4,2.7,0.9,3.7,1.6v2.3c0,1.2-0.5,2.5-1.4,3.9s-2,2.7-3.6,3.9
				c1.1,0.4,2.1,0.5,3.2,0.5h3.4H619.6z M606.8,647.7c0.9,1.2,2,2.5,3.6,3.4c1.4-0.9,2.7-2.1,3.6-3.4c0.9-1.2,1.2-2.7,1.2-3.9
				c-1.8-0.7-3.4-0.9-4.8-0.9s-3,0.4-4.8,0.9C605.5,645.2,605.9,646.4,606.8,647.7"/>
			<polygon class="st383" points="626,634.2 626,655.3 619.6,655.3 619.6,652.8 623.1,652.8 623.1,634.2 			"/>
			<rect x="631.1" y="634.2" class="st383" width="2.8" height="21.2"/>
			<path class="st383" d="M661.7,652.8v2.5h-10.1c-1.8,0-3.2-0.2-4.3-0.7c-1.1-0.5-1.8-1.2-2.3-2.3s-0.7-2.7-0.7-4.4
				c0-1.8,0.2-3.4,0.7-4.4c0.5-1.1,1.2-2,2.1-2.3c1.1-0.5,2.5-0.7,4.3-0.7s2.1,0,3.6,0c1.6,0,2.7,0,3.4,0.2v12.3H661.7L661.7,652.8z
				 M647.7,650.9c0.4,0.7,0.9,1.2,1.4,1.6c0.7,0.4,1.6,0.5,2.8,0.5h3.6v-10c-1.6,0-2.8-0.2-3.7-0.2s-2.1,0-2.8,0.5
				c-0.7,0.4-1.2,0.9-1.4,1.6c-0.4,0.7-0.4,1.8-0.4,2.8C647.1,648.9,647.1,650.2,647.7,650.9 M648.9,634.9h2.5v2.8h-2.5V634.9z
				 M653,634.9h2.5v2.8H653V634.9z"/>
			<path class="st383" d="M687.3,652.8v2.5h-8.4c-1.2,0-2.3-0.4-3.2-1.2c-0.7,0.9-1.8,1.2-2.8,1.2h-10.8v-2.5h4.8V642h2.8v10.8h2.5
				c0.9,0,1.4-0.4,2-1.1c0.4-0.7,0.5-1.6,0.5-2.7v-6.9h2.8v6.9c0,1.1,0,2.1-0.4,3c0.4,0.2,0.5,0.4,1.1,0.5c0.5,0.2,0.9,0.2,1.2,0.2
				h2.8v-5.7c0-1.4,0-3.6-0.5-6.6h2.3c0.2,1.1,0.4,2.3,0.7,3.6s0.4,2.3,0.4,2.8v5.7h2.7l0,0L687.3,652.8z"/>
			<path class="st383" d="M709.7,644.1c0,1.2,0.4,2.3,0.4,2.8v8.2h-5.7c-1.2,0-2.3-0.4-3.4-1.2c-0.7,0.9-1.8,1.2-2.8,1.2h-10.8v-2.5
				h4.8v-10.8h2.8v10.8h2.5c0.9,0,1.4-0.4,2-1.1c0.4-0.7,0.5-1.6,0.5-2.7V642h2.8v6.9c0,1.1,0,2.1-0.4,3c0.4,0.2,0.5,0.4,1.1,0.5
				c0.4,0.2,0.7,0.2,1.2,0.2h2.8V647c0-1.4,0-3.6-0.5-6.6h2.3c0.2,1.1,0.5,2.3,0.7,3.6"/>
			<path class="st383" d="M729.4,655.3h-3.7c0,2.3-0.5,4.1-1.4,5.5c-0.9,1.2-2.1,2-4.1,2s-2.3,0-4.6-0.5v-2.5c2,0.4,3.4,0.5,4.4,0.5
				s1.2,0,1.6-0.4c0.4-0.2,0.7-0.7,0.9-1.4s0.4-1.8,0.4-3h-4.1c-2.3,0-3.7-0.7-4.4-2.1c-0.7-1.4-1.1-3.2-1.1-5.2
				c0-2,0.2-3.6,0.7-4.6c0.5-1.1,1.1-2,2-2.5s2.1-0.9,3.9-0.9c1.8,0,2,0,3.2,0.2c1.2,0,2.1,0.2,2.8,0.4V653h3.6v2.5l0,0L729.4,655.3
				z M716.8,651.4c0.5,0.9,1.4,1.4,3,1.4h3.2v-10.1c-0.9,0-1.8-0.2-2.7-0.2c-1.6,0-2.7,0.4-3.4,1.2s-0.9,2.3-0.9,4.3
				c0,1.4,0.2,2.7,0.7,3.6 M723.4,636.3l-6.2,1.2l-0.4-1.1l1.4-0.4c-0.4-0.4-0.5-0.5-0.9-1.1c0-0.4-0.4-0.7-0.4-1.2
				c0-0.7,0.4-1.4,0.9-2c0.5-0.5,1.2-0.9,2.1-0.9s1.4,0.2,2.1,0.7l-0.4,1.4c0,0-0.4-0.2-0.5-0.4c-0.2,0-0.5,0-0.7,0
				c-0.5,0-0.9,0-1.2,0.5c-0.4,0.4-0.5,0.7-0.5,1.2s0.2,1.1,0.7,1.4l3.4-0.9l0.4,1.4l0,0L723.4,636.3z"/>
			<path class="st383" d="M750.4,652.8v2.5h-1.2c-0.4,0-0.7,0-1.1-0.4c-0.4-0.2-0.7-0.5-1.1-0.9v1.2h-17.8v-2.5h4.8
				c-0.4-1.6-0.4-3.2-0.4-4.8s0-2.5,0.4-3.7c0-1.2,0.4-2.3,0.5-3.2c0.5-0.2,1.2-0.4,2.1-0.5c0.9-0.2,2-0.2,3-0.2
				c2.7,0,4.4,0.5,5.5,1.8s1.6,3.2,1.6,5.9v3.7c0.2,0.4,0.5,0.7,0.9,0.9c0.4,0.2,0.7,0.4,1.2,0.4h1.2L750.4,652.8z M736.7,650.7
				c0,0.9,0,1.6,0.4,2.1h7.3v-5c0-1.8-0.4-3.2-1.1-3.9c-0.7-0.9-2-1.2-3.6-1.2c-1.6,0-1.8,0-2.5,0.2c-0.4,1.8-0.4,3.6-0.4,5
				s0,1.8,0,2.7"/>
			<polygon class="st383" points="756.8,634.2 756.8,655.3 750.4,655.3 750.4,652.8 754.2,652.8 754.2,634.2 			"/>
			<rect x="762.2" y="634.2" class="st383" width="2.8" height="21.2"/>
		</g>
		<g>
			<path class="st384" d="M556.1,308.8L556.1,308.8c0-3.4-2-6.8-5.3-8c-3.4-1.2-7.1-0.4-9.4,2.1l0,0l-23.8,28.6l8.5,29.7l26.8-15.3
				l3-37.2l0,0H556.1z"/>
			<path class="st385" d="M622.1,382.6L622.1,382.6c2.5-2.3,3.4-6,2-9.4c-1.4-3.4-4.6-5.3-8-5.2l0,0l-37.2,3.4l-14.9,27l29.9,8.2
				l28.4-24.2l0,0L622.1,382.6z"/>
			<path class="st386" d="M616.5,481.4L616.5,481.4c3.4,0,6.8-2,8-5.3c1.4-3.4,0.4-7.1-2.1-9.4l0,0l-28.6-23.8l-29.7,8.5l15.3,26.8
				l37.2,3l0,0V481.4z"/>
			<path class="st387" d="M542.8,547.4L542.8,547.4c2.3,2.5,6,3.4,9.4,2c3.4-1.4,5.3-4.6,5.2-8l0,0l-3.4-37.2l-27-14.9l-5.2,33.4
				l21,24.9l0,0V547.4z"/>
			<path class="st386" d="M458.1,547.4L458.1,547.4c-2.3,2.5-6,3.4-9.4,2c-3.4-1.4-5.3-4.6-5.2-8l0,0l3.4-37.2l27-14.9l5.2,33.4
				l-21,24.9l0,0L458.1,547.4z"/>
			<path class="st384" d="M377.9,468.1L377.9,468.1c-2.5,2.3-3.4,6-2,9.4c1.4,3.4,4.6,5.3,8,5.2l0,0l37.2-3.4l14.9-27l-29.9-8.2
				l-28.4,24.2l0,0L377.9,468.1z"/>
			<path class="st388" d="M383.5,369.2L383.5,369.2c-3.4,0-6.8,2-8,5.3c-1.4,3.4-0.4,7.1,2.1,9.4l0,0l28.6,23.8l29.7-8.5l-15.3-26.8
				l-37.2-3l0,0L383.5,369.2z"/>
			<path class="st386" d="M457.2,303.3L457.2,303.3c-2.3-2.5-6-3.4-9.4-2c-3.4,1.4-5.3,4.6-5.2,8.2l0,0l3.4,37.2l27,14.9l8.2-29.9
				l-24.2-28.4l0,0H457.2z"/>
			<path class="st383" d="M578.7,346.5c-0.7-0.7-1.8-0.7-2.7-0.2l-51.6,30.2l-8.7,15.1c0.9,0.4,2,0.9,2.8,1.4l11.6-7.8
				c1.2-1.1,3-0.9,4.3,0.2l5.3,5.3c1.1,1.1,1.2,3,0.2,4.3l-7.8,11.6c0.5,0.9,0.9,1.8,1.4,2.8l15.1-8.7l0,0l30.2-51.6
				C579.4,348.3,579.4,347.2,578.7,346.5"/>
			<path class="st383" d="M369.6,545.3c0.4-0.7,1.1-1.4,2.3-1.2l113.3,39.1l3.6,23.5l-35.9-17.2l-82.5-41.6
				c-0.9-0.7-0.9-1.8-0.5-2.5"/>
			<path class="st383" d="M630.4,545.3c-0.4-0.7-1.1-1.4-2.3-1.2l-113.3,39.1l-3.6,23.5l35.9-17.2l82.5-41.6
				c0.9-0.7,0.9-1.8,0.5-2.5"/>
			<path class="st383" d="M609.6,423.1l-58-15.1l-16.9,4.6c0.4,1.1,0.7,2,1.1,2.8l13.9,2.7c1.6,0.2,2.8,1.6,2.8,3.2v7.6
				c0,1.6-1.2,3-2.8,3.2l-13.9,2.7c-0.2,1.1-0.7,2-1.1,2.8l16.9,4.6l0,0l58-15.1c0.9-0.2,1.8-1.1,1.8-2.1c0-1.1-0.7-1.8-1.8-2.1"/>
			<path class="st383" d="M578.9,501.2l-30.2-51.6l-15.1-8.7c-0.4,0.9-0.9,2-1.4,2.8l7.8,11.6c1.1,1.2,0.9,3-0.2,4.3l-5.3,5.3
				c-1.1,1.1-3,1.2-4.3,0.2l-11.6-7.8c-0.9,0.5-1.8,0.9-2.7,1.4l8.7,15.1l0,0l51.6,30.2c0.9,0.5,2,0.5,2.7-0.2
				c0.7-0.7,0.7-1.8,0.2-2.7"/>
			<path class="st383" d="M509.5,460.8l-2.7,13.9c-0.2,1.6-1.6,2.8-3.2,2.8H496c-1.6,0-3-1.2-3.2-2.8l-2.7-13.9
				c-1.1-0.2-2-0.7-2.8-1.1l-4.6,16.9l0,0l15.1,128.2c0.2,0.9,1.1,1.8,2.1,1.8s1.8-0.7,2.1-1.8l15.1-128.2l-4.6-16.9
				c-0.9,0.4-2,0.7-2.8,1.1"/>
			<path class="st383" d="M481.4,457.3l-11.6,7.8c-1.2,1.1-3,0.9-4.3-0.2l-5.3-5.3c-1.1-1.1-1.2-3-0.2-4.3l7.8-11.6
				c-0.5-0.9-0.9-1.8-1.4-2.8l-15.1,8.7l0,0l-30.2,51.6c-0.5,0.9-0.5,2,0.2,2.7s1.8,0.7,2.7,0.2l51.6-30.2l8.7-15.1
				C483.4,458.3,482.3,457.8,481.4,457.3"/>
			<path class="st383" d="M464.2,434.7l-13.9-2.7c-1.6-0.2-2.8-1.6-2.8-3.2v-7.6c0-1.6,1.2-3,2.8-3.2l13.9-2.7
				c0.2-1.1,0.7-2,1.1-2.8l-16.9-4.6l0,0l-58,15.1c-0.9,0.2-1.8,1.1-1.8,2.1s0.7,1.8,1.8,2.1l58,15.1l16.9-4.6
				c-0.4-1.1-0.7-2-1.1-2.8"/>
			<path class="st383" d="M466.5,409.4c0.4-0.9,0.9-2,1.4-2.8l-7.8-11.6c-1.1-1.2-0.9-3,0.2-4.3l5.3-5.3c1.1-1.1,3-1.2,4.3-0.2
				l11.6,7.8c0.9-0.5,1.8-0.9,2.7-1.4l-8.7-15.1l0,0l-51.6-30.2c-0.9-0.5-2-0.5-2.7,0.2c-0.7,0.7-0.7,1.8-0.2,2.7l30.2,51.6
				l15.1,8.7l0,0H466.5z"/>
			<path class="st383" d="M490.3,389.3l2.7-13.9c0.2-1.6,1.6-2.8,3.2-2.8h7.6c1.6,0,3,1.2,3.2,2.8l2.7,13.9c1.1,0.2,2,0.7,2.8,1.1
				l4.6-16.9l0,0l-15.1-58c-0.2-1.1-1.1-1.8-2.1-1.8c-1.1,0-1.8,0.7-2.1,1.8l-15.1,58l4.6,16.9c0.9-0.4,2-0.7,2.8-1.1"/>
		</g>
	</g>
</g>
</svg>
